<?xml version="1.0" encoding="UTF-8" standalone="no"?>
<!DOCTYPE svg PUBLIC "-//W3C//DTD SVG 1.1//EN" "http://www.w3.org/Graphics/SVG/1.1/DTD/svg11.dtd">
<svg width="100%" height="100%" viewBox="0 0 2084 2084" version="1.1" xmlns="http://www.w3.org/2000/svg" xmlns:xlink="http://www.w3.org/1999/xlink" xml:space="preserve" xmlns:serif="http://www.serif.com/" style="fill-rule:evenodd;clip-rule:evenodd;stroke-miterlimit:10;">
    <g id="Page-1" serif:id="Page 1" transform="matrix(4.166667,0,0,4.166667,0,0)">
        <rect x="0" y="0" width="500" height="500" style="fill:none;"/>
        <g id="BACKGROUND">
        </g>
        <g id="OBJECTS">
            <g opacity="0.76">
                <g transform="matrix(1,0,0,1,265.5918,74.2693)">
                    <path d="M0,266.258C-39.495,263.041 -87.718,256.533 -117.811,246.065C-142.555,237.456 -162.517,219.204 -175.186,199.639C-187.855,180.073 -187.824,153.997 -170.417,137.102C-155.435,122.561 -129.007,114.924 -123.215,96.433C-120.847,88.87 -122.601,80.906 -122.795,73.096C-123.46,46.463 -104.019,20.19 -75.033,8.55C-56.78,1.22 -33.387,0 -17.263,10.184C-7.08,16.614 -1.014,26.682 9.023,33.268C21.665,41.562 38.634,43.207 54.105,47.006C70.087,50.93 85.503,57.697 96.059,68.364C106.615,79.031 111.613,94.003 106.25,107.052C103.979,112.577 99.938,118.403 102.471,123.849C103.575,126.223 105.801,128.097 107.893,129.963C121.873,142.426 132.366,157.877 135.804,174.635C139.241,191.394 135.19,209.449 122.948,223.107C114.55,232.477 102.786,239.431 90.488,245.147C62.912,257.964 31.614,265.266 0,266.258" style="fill:rgb(239,239,255);fill-rule:nonzero;"/>
                </g>
            </g>
            <g opacity="0.48">
                <g transform="matrix(1,0,0,1,265.0781,282.2517)">
                    <path d="M0,-118.157C-5.301,-118.157 -9.614,-122.47 -9.614,-127.771C-9.614,-131.543 -7.427,-134.804 -4.258,-136.379L2.135,-128.933L2.216,-128.839L7.865,-122.259C6.124,-119.782 3.251,-118.157 0,-118.157M153.824,-90.222C153.824,-93.431 151.223,-96.033 148.013,-96.033C147.056,-96.033 146.155,-95.798 145.359,-95.387L78.88,-164.768C79.244,-165.472 79.47,-166.261 79.47,-167.109C79.47,-169.942 77.174,-172.238 74.342,-172.238C72.093,-172.238 70.202,-170.781 69.511,-168.767L47.558,-168.767C45.013,-170.472 34.869,-176.114 19.832,-169.624C3.814,-162.71 -9.491,-168.129 -22.751,-163.646C-24.572,-163.03 -25.177,-160.746 -23.925,-159.287L-4.931,-137.163C-8.306,-135.384 -10.614,-131.844 -10.614,-127.771C-10.614,-121.919 -5.854,-117.157 0,-117.157C3.498,-117.157 6.597,-118.865 8.531,-121.483L28.096,-98.694C28.564,-98.148 29.182,-97.838 29.821,-97.728C30.095,-97.681 30.371,-97.66 30.646,-97.69C31.56,-97.789 32.423,-98.313 32.888,-99.229C35.238,-103.867 36.253,-108.719 37.087,-113.745C37.156,-114.164 37.225,-114.585 37.292,-115.006C37.563,-116.692 37.824,-118.396 38.12,-120.118C38.341,-121.41 38.581,-122.712 38.858,-124.023C39.967,-129.268 41.668,-134.664 45.117,-140.173C45.119,-140.176 45.12,-140.178 45.122,-140.181C45.446,-140.7 45.75,-141.214 46.04,-141.724C46.137,-141.893 46.224,-142.06 46.316,-142.228C46.505,-142.572 46.69,-142.914 46.864,-143.253C46.963,-143.447 47.057,-143.638 47.15,-143.829C47.304,-144.142 47.453,-144.454 47.595,-144.763C47.683,-144.957 47.77,-145.15 47.854,-145.342C47.988,-145.652 48.116,-145.96 48.24,-146.265C48.313,-146.445 48.386,-146.625 48.454,-146.803C48.583,-147.137 48.701,-147.467 48.815,-147.796C48.865,-147.938 48.92,-148.083 48.967,-148.224C49.123,-148.694 49.269,-149.158 49.398,-149.615C49.402,-149.629 49.405,-149.642 49.409,-149.656C49.535,-150.1 49.647,-150.539 49.75,-150.971C49.781,-151.103 49.807,-151.232 49.836,-151.363C49.906,-151.678 49.973,-151.991 50.031,-152.3C50.059,-152.445 50.083,-152.588 50.108,-152.732C50.159,-153.025 50.206,-153.315 50.248,-153.602C50.268,-153.74 50.286,-153.877 50.304,-154.013C50.343,-154.312 50.375,-154.605 50.403,-154.896C50.415,-155.01 50.428,-155.124 50.437,-155.238C50.467,-155.586 50.489,-155.928 50.506,-156.265C50.508,-156.312 50.512,-156.361 50.515,-156.408C50.55,-157.213 50.548,-157.985 50.518,-158.722C50.517,-158.751 50.515,-158.778 50.514,-158.807C50.499,-159.141 50.478,-159.468 50.452,-159.788C50.448,-159.835 50.443,-159.882 50.439,-159.928C50.413,-160.237 50.382,-160.537 50.347,-160.831C50.343,-160.865 50.338,-160.899 50.334,-160.933C50.108,-162.738 49.729,-164.262 49.344,-165.451L69.511,-165.451C70.202,-163.437 72.093,-161.98 74.342,-161.98C75.112,-161.98 75.836,-162.162 76.492,-162.467L142.966,-93.094C142.481,-92.246 142.202,-91.268 142.202,-90.222C142.202,-88.046 143.399,-86.152 145.17,-85.156L114.485,50.739L104.206,50.739C103.136,50.739 102.269,51.606 102.269,52.676L102.269,53.084C102.269,54.155 103.136,55.022 104.206,55.022L113.518,55.022L113.02,57.228L116.253,57.957L116.916,55.022L128.344,55.022C129.413,55.022 130.281,54.155 130.281,53.084L130.281,52.676C130.281,51.606 129.413,50.739 128.344,50.739L117.883,50.739L148.405,-84.43C151.431,-84.633 153.824,-87.145 153.824,-90.222" style="fill:rgb(227,227,255);fill-rule:nonzero;"/>
                </g>
            </g>
            <g transform="matrix(1,0,0,1,235.5542,269.3681)">
                <path d="M0,-108.538C-10.949,-96.363 -20.92,-83.323 -29.82,-69.58C-38.769,-55.76 -46.622,-41.23 -53.275,-26.169C-56.991,-17.757 -60.324,-9.179 -63.282,-0.47C-63.576,0.398 -62.18,0.684 -61.888,-0.176C-56.629,-15.659 -50.126,-30.718 -42.485,-45.174C-34.893,-59.54 -26.177,-73.31 -16.43,-86.31C-10.917,-93.661 -5.077,-100.762 1.067,-107.593C1.679,-108.274 0.615,-109.222 0,-108.538" style="fill:rgb(227,227,255);fill-rule:nonzero;"/>
            </g>
            <g transform="matrix(1,0,0,1,232.6968,138.7281)">
                <path d="M0,26.457C-1.636,20.98 -1.307,14.84 1.396,9.803C4.098,4.767 9.275,1.004 14.969,0.502C20.663,0 26.643,3.027 29.182,8.147C29.502,8.792 29.773,9.484 29.771,10.204C29.768,10.908 29.504,11.584 29.19,12.213C26.707,17.184 21.242,19.848 16.008,21.714C11.238,23.415 4.973,25.502 0,26.457" style="fill:rgb(227,227,255);fill-rule:nonzero;"/>
            </g>
            <g transform="matrix(1,0,0,1,218.062,184.7525)">
                <path d="M0,-1.502C2.9,-6.427 7.624,-10.365 13.153,-11.812C18.683,-13.26 24.963,-12.026 29.205,-8.195C33.448,-4.364 35.299,2.077 33.275,7.422C33.02,8.096 32.697,8.765 32.168,9.253C31.651,9.73 30.976,9.997 30.3,10.195C24.969,11.758 19.297,9.565 14.368,7.001C9.876,4.663 4.083,1.493 0,-1.502" style="fill:rgb(227,227,255);fill-rule:nonzero;"/>
            </g>
            <g transform="matrix(1,0,0,1,185.1313,237.5375)">
                <path d="M0,-1.307C2.524,-5.594 6.635,-9.021 11.448,-10.281C16.261,-11.541 21.728,-10.467 25.419,-7.133C29.112,-3.799 30.724,1.808 28.962,6.461C28.74,7.047 28.459,7.63 27.999,8.054C27.548,8.469 26.96,8.701 26.373,8.874C21.732,10.234 16.796,8.326 12.506,6.093C8.596,4.059 3.554,1.299 0,-1.307" style="fill:rgb(227,227,255);fill-rule:nonzero;"/>
            </g>
            <g transform="matrix(1,0,0,1,218.6235,145.5448)">
                <path d="M0,38.569C0.443,32.289 -6.358,25.599 -8.959,22.601C-11.561,19.604 -13.676,15.804 -13.247,11.858C-12.955,9.172 -11.516,6.747 -9.889,4.59C-8.162,2.299 -5.836,0.035 -2.968,0.019C0.286,0 2.817,2.898 4.183,5.852C6.57,11.016 6.836,16.978 5.804,22.574C4.771,28.169 2.509,33.462 0,38.569" style="fill:rgb(227,227,255);fill-rule:nonzero;"/>
            </g>
            <g transform="matrix(1,0,0,1,199.5278,172.7943)">
                <path d="M0,38.569C0.444,32.289 -6.357,25.599 -8.959,22.601C-11.561,19.604 -13.676,15.804 -13.247,11.858C-12.955,9.172 -11.516,6.747 -9.889,4.59C-8.162,2.299 -5.836,0.036 -2.968,0.019C0.286,0 2.817,2.898 4.183,5.852C6.571,11.016 6.836,16.978 5.804,22.574C4.771,28.17 2.509,33.462 0,38.569" style="fill:rgb(227,227,255);fill-rule:nonzero;"/>
            </g>
            <g transform="matrix(1,0,0,1,184.0933,201.9881)">
                <path d="M0,38.569C0.443,32.289 -6.358,25.599 -8.959,22.601C-11.561,19.604 -13.676,15.804 -13.247,11.858C-12.955,9.172 -11.516,6.747 -9.889,4.59C-8.163,2.299 -5.836,0.036 -2.969,0.019C0.286,0 2.816,2.898 4.182,5.852C6.57,11.016 6.836,16.978 5.803,22.574C4.771,28.17 2.509,33.462 0,38.569" style="fill:rgb(227,227,255);fill-rule:nonzero;"/>
            </g>
            <g transform="matrix(1,0,0,1,231.8984,208.9822)">
                <path d="M0,-1.739C-0.242,-4.433 -2.553,-6.439 -4.842,-7.881C-6.998,-9.239 -9.39,-10.4 -11.938,-10.463C-15.68,-10.554 -19.083,-8.265 -21.695,-5.584C-23.982,-3.236 -28.676,2.363 -33.794,3.771C-33.827,4.137 -33.889,4.496 -33.97,4.849C-29.604,6.47 -25.128,7.829 -20.502,8.287C-15.163,8.815 -9.581,8.094 -4.916,5.442C-2.248,3.925 0.275,1.318 0,-1.739" style="fill:rgb(227,227,255);fill-rule:nonzero;"/>
            </g>
            <g transform="matrix(1,0,0,1,170.2632,185.7824)">
                <path d="M0,-50.321C-0.841,-43.775 -1.16,-37.167 -0.962,-30.571C-0.763,-23.938 -0.038,-17.321 1.207,-10.802C1.902,-7.161 2.762,-3.553 3.776,0.012C3.877,0.367 4.406,0.142 4.306,-0.21C2.502,-6.549 1.208,-13.032 0.43,-19.576C-0.344,-26.079 -0.609,-32.642 -0.355,-39.186C-0.212,-42.886 0.098,-46.579 0.57,-50.252C0.617,-50.618 0.047,-50.688 0,-50.321" style="fill:rgb(227,227,255);fill-rule:nonzero;"/>
            </g>
            <g transform="matrix(1,0,0,1,170.3135,123.6865)">
                <path d="M0,13.874C-1.797,12.433 -3.095,10.321 -3.353,8.032C-3.611,5.743 -2.756,3.309 -0.983,1.838C0.79,0.367 3.466,0 5.481,1.117C5.735,1.257 5.984,1.424 6.148,1.664C6.308,1.897 6.375,2.183 6.416,2.463C6.731,4.68 5.529,6.816 4.221,8.634C3.029,10.291 1.43,12.418 0,13.874" style="fill:rgb(227,227,255);fill-rule:nonzero;"/>
            </g>
            <g transform="matrix(1,0,0,1,169.5996,137.7518)">
                <path d="M0,9.152C-0.167,6.854 0.498,4.466 2,2.719C3.501,0.973 5.866,-0.057 8.151,0.241C10.435,0.54 12.525,2.251 13.079,4.487C13.148,4.769 13.194,5.065 13.131,5.348C13.068,5.625 12.906,5.868 12.727,6.088C11.317,7.828 8.935,8.401 6.712,8.679C4.687,8.933 2.041,9.209 0,9.152" style="fill:rgb(227,227,255);fill-rule:nonzero;"/>
            </g>
            <g transform="matrix(1,0,0,1,170.8188,164.0506)">
                <path d="M0,7.965C-0.145,5.965 0.433,3.887 1.74,2.366C3.047,0.846 5.106,-0.05 7.094,0.21C9.082,0.469 10.901,1.959 11.383,3.905C11.444,4.151 11.484,4.408 11.429,4.654C11.375,4.895 11.233,5.107 11.078,5.298C9.851,6.813 7.776,7.311 5.842,7.554C4.08,7.775 1.776,8.015 0,7.965" style="fill:rgb(227,227,255);fill-rule:nonzero;"/>
            </g>
            <g transform="matrix(1,0,0,1,169.9839,134.207)">
                <path d="M0,12.854C-1.292,10.67 -5.08,10.01 -6.629,9.612C-8.179,9.214 -9.751,8.439 -10.513,7.032C-11.031,6.075 -11.109,4.941 -11.064,3.853C-11.017,2.698 -10.764,1.414 -9.817,0.751C-8.742,0 -7.239,0.381 -6.109,1.047C-4.134,2.213 -2.68,4.129 -1.741,6.221C-0.801,8.313 -0.338,10.586 0,12.854" style="fill:rgb(227,227,255);fill-rule:nonzero;"/>
            </g>
            <g transform="matrix(1,0,0,1,169.895,147.6177)">
                <path d="M0,12.854C-1.292,10.67 -5.08,10.01 -6.629,9.612C-8.178,9.214 -9.75,8.439 -10.512,7.032C-11.031,6.075 -11.109,4.941 -11.064,3.853C-11.016,2.698 -10.764,1.414 -9.816,0.751C-8.742,0 -7.239,0.381 -6.109,1.047C-4.134,2.213 -2.68,4.129 -1.74,6.221C-0.801,8.312 -0.338,10.586 0,12.854" style="fill:rgb(227,227,255);fill-rule:nonzero;"/>
            </g>
            <g transform="matrix(1,0,0,1,171.4658,160.8345)">
                <path d="M0,12.854C-1.292,10.67 -5.08,10.01 -6.629,9.612C-8.178,9.214 -9.75,8.439 -10.512,7.032C-11.031,6.074 -11.109,4.94 -11.064,3.853C-11.016,2.698 -10.764,1.414 -9.816,0.751C-8.742,0 -7.239,0.38 -6.109,1.047C-4.134,2.212 -2.68,4.128 -1.74,6.22C-0.801,8.312 -0.338,10.585 0,12.854" style="fill:rgb(227,227,255);fill-rule:nonzero;"/>
            </g>
            <g transform="matrix(1,0,0,1,179.6851,160.684)">
                <path d="M0,-8.995C-0.698,-9.832 -1.924,-9.968 -3.013,-9.922C-4.039,-9.879 -5.098,-9.715 -5.958,-9.152C-7.219,-8.326 -7.823,-6.787 -8.075,-5.299C-8.295,-3.996 -8.569,-1.065 -9.943,0.575C-9.871,0.704 -9.809,0.837 -9.755,0.973C-7.936,0.51 -6.14,-0.065 -4.501,-0.973C-2.61,-2.021 -0.924,-3.539 0.015,-5.487C0.552,-6.601 0.792,-8.044 0,-8.995" style="fill:rgb(227,227,255);fill-rule:nonzero;"/>
            </g>
            <g transform="matrix(1,0,0,1,106.7168,241.5523)">
                <path d="M0,-66.168C2.513,-56.776 5.772,-47.591 9.729,-38.711C13.708,-29.782 18.395,-21.168 23.735,-12.98C26.718,-8.406 29.907,-3.97 33.283,0.322C33.619,0.75 34.214,0.148 33.881,-0.275C27.879,-7.907 22.492,-16.02 17.772,-24.505C13.083,-32.936 9.052,-41.732 5.74,-50.793C3.867,-55.917 2.226,-61.123 0.815,-66.393C0.675,-66.918 -0.141,-66.695 0,-66.168" style="fill:rgb(6,0,90);fill-rule:nonzero;"/>
            </g>
            <g transform="matrix(1,0,0,1,107.9585,157.3698)">
                <path d="M0,20.847C-3.255,19.888 -6.204,17.735 -7.835,14.759C-9.467,11.783 -9.662,7.988 -8.068,4.992C-6.474,1.996 -3.031,0 0.34,0.395C0.764,0.445 1.197,0.534 1.554,0.768C1.903,0.997 2.154,1.348 2.366,1.708C4.035,4.554 3.59,8.136 2.824,11.345C2.126,14.269 1.136,18.063 0,20.847" style="fill:rgb(6,0,90);fill-rule:nonzero;"/>
            </g>
            <g transform="matrix(1,0,0,1,112.2085,173.7791)">
                <path d="M0,17.571C-1.512,14.533 -1.941,10.907 -0.871,7.687C0.2,4.466 2.848,1.74 6.128,0.87C9.408,0 13.213,1.164 15.218,3.903C15.47,4.248 15.699,4.625 15.771,5.047C15.84,5.458 15.754,5.881 15.634,6.281C14.685,9.44 11.757,11.552 8.885,13.175C6.267,14.653 2.813,16.509 0,17.571" style="fill:rgb(6,0,90);fill-rule:nonzero;"/>
            </g>
            <g transform="matrix(1,0,0,1,127.9077,209.602)">
                <path d="M0,15.294C-1.316,12.649 -1.689,9.494 -0.758,6.69C0.174,3.887 2.479,1.515 5.334,0.757C8.188,0 11.5,1.014 13.246,3.397C13.465,3.697 13.664,4.026 13.726,4.393C13.787,4.751 13.712,5.119 13.608,5.467C12.782,8.217 10.233,10.055 7.733,11.467C5.455,12.754 2.448,14.369 0,15.294" style="fill:rgb(6,0,90);fill-rule:nonzero;"/>
            </g>
            <g transform="matrix(1,0,0,1,112.8203,178.3961)">
                <path d="M0,12.954C-2.981,10.7 -8.514,11.917 -10.848,12.241C-13.182,12.565 -15.758,12.387 -17.583,10.895C-18.825,9.88 -19.565,8.379 -20.112,6.871C-20.692,5.269 -21.066,3.379 -20.145,1.946C-19.101,0.321 -16.839,0 -14.927,0.277C-11.583,0.761 -8.53,2.559 -6.08,4.886C-3.63,7.212 -1.729,10.052 0,12.954" style="fill:rgb(6,0,90);fill-rule:nonzero;"/>
            </g>
            <g transform="matrix(1,0,0,1,120.1958,196.7232)">
                <path d="M0,12.955C-2.981,10.701 -8.513,11.918 -10.848,12.242C-13.182,12.565 -15.758,12.388 -17.583,10.896C-18.825,9.881 -19.565,8.379 -20.112,6.871C-20.692,5.27 -21.065,3.38 -20.145,1.947C-19.1,0.321 -16.839,0 -14.926,0.277C-11.583,0.762 -8.53,2.56 -6.08,4.887C-3.63,7.213 -1.729,10.052 0,12.955" style="fill:rgb(6,0,90);fill-rule:nonzero;"/>
            </g>
            <g transform="matrix(1,0,0,1,129.7246,213.859)">
                <path d="M0,12.955C-2.981,10.7 -8.513,11.918 -10.848,12.242C-13.182,12.565 -15.758,12.388 -17.583,10.896C-18.825,9.881 -19.565,8.379 -20.112,6.871C-20.692,5.27 -21.065,3.379 -20.145,1.947C-19.1,0.321 -16.839,0 -14.926,0.277C-11.583,0.762 -8.53,2.56 -6.08,4.887C-3.63,7.213 -1.729,10.052 0,12.955" style="fill:rgb(6,0,90);fill-rule:nonzero;"/>
            </g>
            <g transform="matrix(1,0,0,1,128.6294,210.5214)">
                <path d="M0,-18.286C-1.419,-19.038 -3.166,-18.538 -4.625,-17.866C-5.999,-17.233 -7.352,-16.418 -8.208,-15.171C-9.465,-13.338 -9.428,-10.904 -8.94,-8.736C-8.512,-6.837 -7.246,-2.688 -8.203,0.315C-8.031,0.45 -7.873,0.597 -7.724,0.752C-5.503,-0.895 -3.376,-2.683 -1.651,-4.836C0.341,-7.323 1.791,-10.334 1.981,-13.514C2.091,-15.333 1.61,-17.433 0,-18.286" style="fill:rgb(6,0,90);fill-rule:nonzero;"/>
            </g>
            <g transform="matrix(1,0,0,1,134.3286,230.4037)">
                <path d="M0,83.067C-14.794,83.384 -29.653,78.793 -41.689,70.183C-53.726,61.574 -62.872,48.995 -67.351,34.891C-69.275,28.831 -70.357,22.334 -69.092,16.101C-67.828,9.869 -63.907,3.941 -58.05,1.466C-53.829,-0.317 -48.958,-0.182 -44.594,1.211C-40.229,2.604 -36.322,5.176 -32.824,8.134C-22.479,16.88 -11.613,33.022 -7.192,45.827C-2.772,58.63 0,72.327 0,83.067" style="fill:rgb(244,190,71);fill-rule:nonzero;"/>
            </g>
            <g transform="matrix(1,0,0,1,78.5278,312.9805)">
                <path d="M0,-72.086C3.188,-67.058 6.679,-62.231 10.313,-57.517C13.939,-52.812 17.704,-48.215 21.458,-43.612C25.241,-38.976 29.016,-34.331 32.625,-29.557C36.201,-24.828 39.539,-19.931 42.969,-15.097C46.372,-10.3 49.892,-5.567 53.871,-1.229C54.364,-0.691 54.864,-0.16 55.371,0.364C55.651,0.654 56.093,0.212 55.813,-0.077C51.71,-4.325 48.101,-9.011 44.659,-13.801C41.216,-18.59 37.922,-23.484 34.404,-28.22C30.86,-32.989 27.138,-37.623 23.387,-42.231C19.638,-46.836 15.86,-51.419 12.201,-56.097C8.536,-60.781 4.992,-65.567 1.734,-70.546C1.332,-71.161 0.933,-71.78 0.54,-72.401C0.325,-72.74 -0.216,-72.427 0,-72.086" style="fill:rgb(6,0,90);fill-rule:nonzero;"/>
            </g>
            <g transform="matrix(1,0,0,1,84.5654,295.5402)">
                <path d="M0,-18.34C4.705,-15.662 9.36,-12.898 14.063,-10.214C18.346,-7.769 22.686,-5.424 27.136,-3.296C30.006,-1.923 32.917,-0.637 35.855,0.585C36.226,0.739 36.388,0.135 36.021,-0.018C31.055,-2.083 26.18,-4.359 21.423,-6.868C17.057,-9.172 12.789,-11.656 8.523,-14.14C5.792,-15.73 3.061,-17.317 0.315,-18.88C-0.035,-19.079 -0.35,-18.539 0,-18.34" style="fill:rgb(6,0,90);fill-rule:nonzero;"/>
            </g>
            <g transform="matrix(1,0,0,1,103.6885,247.9287)">
                <path d="M0,25.044C-1.705,18.482 -3.006,11.798 -4.072,5.104C-4.351,3.354 -4.608,1.601 -4.827,-0.157C-4.876,-0.551 -5.501,-0.556 -5.452,-0.157C-4.61,6.599 -3.351,13.319 -1.864,19.962C-1.471,21.718 -1.055,23.469 -0.603,25.211C-0.502,25.6 0.101,25.435 0,25.044" style="fill:rgb(6,0,90);fill-rule:nonzero;"/>
            </g>
            <g transform="matrix(1,0,0,1,127.8652,303.9056)">
                <path d="M0,17.027C-8.39,23.83 -19.014,27.83 -29.808,28.25C-40.601,28.67 -51.504,25.507 -60.397,19.378C-64.219,16.743 -67.75,13.48 -69.809,9.32C-71.868,5.16 -72.26,-0.013 -69.989,-4.062C-68.353,-6.978 -65.483,-9.079 -62.342,-10.229C-59.202,-11.378 -55.798,-11.643 -52.457,-11.502C-42.578,-11.086 -29.088,-6.639 -20.81,-1.232C-12.532,4.174 -4.805,10.834 0,17.027" style="fill:rgb(52,35,199);fill-rule:nonzero;"/>
            </g>
            <g transform="matrix(1,0,0,1,63.2114,320.573)">
                <path d="M0,-16.53C4.088,-15.056 8.262,-13.835 12.466,-12.742C16.663,-11.651 20.891,-10.684 25.115,-9.71C29.372,-8.728 33.627,-7.738 37.844,-6.599C42.022,-5.472 46.139,-4.141 50.28,-2.887C54.388,-1.644 58.536,-0.489 62.772,0.233C63.297,0.322 63.823,0.404 64.35,0.48C64.641,0.522 64.698,0.07 64.407,0.028C60.14,-0.587 55.963,-1.675 51.834,-2.896C47.706,-4.119 43.616,-5.467 39.469,-6.625C35.291,-7.79 31.071,-8.796 26.846,-9.775C22.623,-10.755 18.394,-11.707 14.19,-12.767C9.981,-13.83 5.796,-15.004 1.689,-16.418C1.182,-16.592 0.675,-16.771 0.17,-16.954C-0.105,-17.052 -0.277,-16.63 0,-16.53" style="fill:rgb(176,176,176);fill-rule:nonzero;"/>
            </g>
            <g transform="matrix(1,0,0,1,82.9375,316.6963)">
                <path d="M0,5.584C3.912,5.023 7.833,4.534 11.746,3.979C15.311,3.472 18.862,2.883 22.381,2.119C24.651,1.626 26.905,1.065 29.146,0.456C29.429,0.379 29.251,-0.042 28.972,0.034C25.184,1.065 21.354,1.934 17.488,2.614C13.939,3.239 10.366,3.717 6.794,4.192C4.509,4.498 2.223,4.805 -0.06,5.132C-0.351,5.173 -0.291,5.626 0,5.584" style="fill:rgb(176,176,176);fill-rule:nonzero;"/>
            </g>
            <g transform="matrix(1,0,0,1,92.0747,299.2511)">
                <path d="M0,12.035C-3.919,9.013 -7.661,5.74 -11.27,2.356C-12.213,1.472 -13.146,0.576 -14.059,-0.34C-14.264,-0.545 -14.626,-0.268 -14.419,-0.061C-10.911,3.46 -7.178,6.772 -3.349,9.937C-2.336,10.774 -1.313,11.598 -0.273,12.4C-0.041,12.58 0.233,12.215 0,12.035" style="fill:rgb(176,176,176);fill-rule:nonzero;"/>
            </g>
            <g transform="matrix(1,0,0,1,372.8076,265.5314)">
                <path d="M0,-64.443C-6.501,-57.214 -12.422,-49.472 -17.705,-41.312C-23.019,-33.107 -27.682,-24.48 -31.632,-15.538C-33.838,-10.543 -35.816,-5.449 -37.573,-0.279C-37.748,0.236 -36.919,0.406 -36.745,-0.104C-33.623,-9.297 -29.762,-18.238 -25.226,-26.822C-20.718,-35.351 -15.543,-43.527 -9.755,-51.246C-6.482,-55.61 -3.015,-59.826 0.633,-63.882C0.997,-64.286 0.365,-64.849 0,-64.443" style="fill:rgb(6,0,90);fill-rule:nonzero;"/>
            </g>
            <g transform="matrix(1,0,0,1,371.1104,187.9663)">
                <path d="M0,15.708C-0.971,12.456 -0.775,8.81 0.829,5.82C2.434,2.829 5.508,0.595 8.888,0.297C12.269,0 15.819,1.796 17.327,4.836C17.517,5.219 17.678,5.63 17.677,6.058C17.675,6.476 17.519,6.877 17.331,7.251C15.857,10.202 12.612,11.784 9.505,12.892C6.673,13.902 2.953,15.141 0,15.708" style="fill:rgb(6,0,90);fill-rule:nonzero;"/>
            </g>
            <g transform="matrix(1,0,0,1,362.4219,215.2924)">
                <path d="M0,-0.892C1.722,-3.817 4.526,-6.155 7.81,-7.014C11.092,-7.873 14.821,-7.141 17.34,-4.866C19.858,-2.592 20.958,1.233 19.756,4.407C19.605,4.806 19.413,5.204 19.1,5.494C18.792,5.777 18.392,5.935 17.99,6.053C14.824,6.981 11.457,5.679 8.531,4.156C5.863,2.768 2.424,0.886 0,-0.892" style="fill:rgb(6,0,90);fill-rule:nonzero;"/>
            </g>
            <g transform="matrix(1,0,0,1,342.8691,246.6334)">
                <path d="M0,-0.777C1.499,-3.322 3.94,-5.358 6.798,-6.105C9.655,-6.853 12.9,-6.215 15.093,-4.236C17.285,-2.256 18.242,1.073 17.196,3.835C17.064,4.182 16.897,4.529 16.624,4.781C16.356,5.028 16.008,5.165 15.659,5.268C12.903,6.076 9.973,4.943 7.426,3.617C5.104,2.409 2.11,0.77 0,-0.777" style="fill:rgb(6,0,90);fill-rule:nonzero;"/>
            </g>
            <g transform="matrix(1,0,0,1,362.7549,192.0126)">
                <path d="M0,22.9C0.264,19.171 -3.774,15.199 -5.319,13.42C-6.864,11.64 -8.12,9.383 -7.865,7.041C-7.691,5.446 -6.837,4.006 -5.871,2.725C-4.846,1.365 -3.465,0.022 -1.763,0.011C0.17,0 1.673,1.721 2.483,3.475C3.901,6.541 4.06,10.081 3.446,13.403C2.833,16.726 1.489,19.868 0,22.9" style="fill:rgb(6,0,90);fill-rule:nonzero;"/>
            </g>
            <g transform="matrix(1,0,0,1,351.417,208.1918)">
                <path d="M0,22.9C0.264,19.171 -3.774,15.199 -5.319,13.42C-6.863,11.64 -8.12,9.383 -7.865,7.041C-7.691,5.446 -6.837,4.006 -5.871,2.725C-4.846,1.365 -3.465,0.021 -1.762,0.011C0.17,0 1.673,1.721 2.483,3.475C3.901,6.541 4.06,10.081 3.446,13.403C2.833,16.725 1.49,19.868 0,22.9" style="fill:rgb(6,0,90);fill-rule:nonzero;"/>
            </g>
            <g transform="matrix(1,0,0,1,342.2529,225.5253)">
                <path d="M0,22.9C0.264,19.171 -3.774,15.199 -5.319,13.42C-6.864,11.639 -8.12,9.383 -7.865,7.041C-7.691,5.446 -6.838,4.006 -5.871,2.725C-4.846,1.365 -3.465,0.021 -1.763,0.011C0.17,0 1.673,1.72 2.483,3.474C3.901,6.541 4.059,10.081 3.446,13.403C2.833,16.725 1.489,19.868 0,22.9" style="fill:rgb(6,0,90);fill-rule:nonzero;"/>
            </g>
            <g transform="matrix(1,0,0,1,370.6367,229.6785)">
                <path d="M0,-1.033C-0.144,-2.632 -1.516,-3.824 -2.875,-4.68C-4.155,-5.487 -5.575,-6.176 -7.088,-6.213C-9.31,-6.267 -11.33,-4.908 -12.881,-3.316C-14.239,-1.922 -17.025,1.402 -20.064,2.238C-20.084,2.456 -20.121,2.669 -20.169,2.879C-17.577,3.841 -14.919,4.648 -12.173,4.92C-9.003,5.234 -5.688,4.805 -2.919,3.231C-1.335,2.33 0.163,0.782 0,-1.033" style="fill:rgb(6,0,90);fill-rule:nonzero;"/>
            </g>
            <g transform="matrix(1,0,0,1,363.0869,267.2946)">
                <path d="M0,43.013C1.379,32.299 6.31,22.074 13.832,14.323C21.354,6.571 31.428,1.337 42.096,-0.362C46.679,-1.092 51.486,-1.167 55.847,0.423C60.208,2.014 64.061,5.488 65.21,9.985C66.038,13.225 65.411,16.726 63.931,19.725C62.451,22.724 60.169,25.264 57.654,27.468C50.217,33.984 37.384,40.072 27.661,41.87C17.938,43.668 7.752,44.18 0,43.013" style="fill:rgb(52,35,199);fill-rule:nonzero;"/>
            </g>
            <g transform="matrix(1,0,0,1,421.5381,310.4289)">
                <path d="M0,-32.507C-3.976,-30.753 -7.84,-28.758 -11.637,-26.648C-15.428,-24.541 -19.154,-22.324 -22.885,-20.114C-26.643,-17.889 -30.406,-15.669 -34.244,-13.582C-38.046,-11.516 -41.944,-9.639 -45.806,-7.69C-49.638,-5.754 -53.437,-3.729 -57.001,-1.327C-57.442,-1.03 -57.88,-0.727 -58.314,-0.418C-58.554,-0.248 -58.282,0.119 -58.043,-0.051C-54.531,-2.551 -50.757,-4.647 -46.926,-6.611C-43.094,-8.574 -39.203,-10.42 -35.402,-12.445C-31.574,-14.484 -27.826,-16.667 -24.092,-18.873C-20.36,-21.078 -16.642,-23.307 -12.867,-25.44C-9.087,-27.575 -5.248,-29.613 -1.3,-31.423C-0.812,-31.647 -0.322,-31.867 0.169,-32.083C0.437,-32.201 0.27,-32.626 0,-32.507" style="fill:rgb(176,176,176);fill-rule:nonzero;"/>
            </g>
            <g transform="matrix(1,0,0,1,394.6768,302.358)">
                <path d="M0,-24.026C-2.444,-20.921 -4.946,-17.861 -7.395,-14.759C-9.625,-11.933 -11.789,-9.056 -13.81,-6.075C-15.112,-4.152 -16.357,-2.192 -17.558,-0.204C-17.71,0.047 -17.291,0.23 -17.141,-0.018C-15.11,-3.379 -12.938,-6.649 -10.609,-9.81C-8.472,-12.712 -6.215,-15.522 -3.958,-18.331C-2.514,-20.129 -1.071,-21.927 0.355,-23.74C0.537,-23.97 0.182,-24.256 0,-24.026" style="fill:rgb(176,176,176);fill-rule:nonzero;"/>
            </g>
            <g transform="matrix(1,0,0,1,395.6484,291.3027)">
                <path d="M0,1.292C4.922,0.774 9.889,0.562 14.836,0.521C16.129,0.51 17.423,0.515 18.715,0.548C19.005,0.556 19.076,0.105 18.783,0.097C13.815,-0.03 8.827,0.148 3.872,0.499C2.562,0.592 1.252,0.701 -0.054,0.839C-0.346,0.869 -0.292,1.322 0,1.292" style="fill:rgb(176,176,176);fill-rule:nonzero;"/>
            </g>
            <g transform="matrix(1,0,0,1,57.3384,349.5215)">
                <path d="M0,2L324.824,2C329.21,2 333.605,2.074 337.991,2C338.183,1.996 338.375,2 338.567,2C339.903,2 339.905,-0 338.567,-0L13.744,-0C9.357,-0 4.962,-0.074 0.576,-0C0.384,0.003 0.192,-0 0,-0C-1.336,-0 -1.338,2 0,2" style="fill:rgb(19,8,74);fill-rule:nonzero;"/>
            </g>
            <g transform="matrix(1,0,0,1,408.9316,349.5215)">
                <path d="M0,2L26.541,2C27.692,2 27.694,0 26.541,0L0,0C-1.151,0 -1.153,2 0,2" style="fill:rgb(19,8,74);fill-rule:nonzero;"/>
            </g>
            <g transform="matrix(1,0,0,1,398.3535,102.6041)">
                <path d="M0,226.724L-3.233,225.995L29.947,79.049L-42.62,3.315L-71.832,3.315L-71.832,0L-41.204,0L-40.715,0.511L33.573,78.042L0,226.724Z" style="fill:rgb(227,227,255);fill-rule:nonzero;"/>
            </g>
            <g transform="matrix(0,-1,-1,0,430.1133,175.3384)">
                <path d="M-5.811,-5.811C-9.02,-5.811 -11.622,-3.209 -11.622,0C-11.622,3.209 -9.02,5.811 -5.811,5.811C-2.602,5.811 0,3.209 0,0C0,-3.209 -2.602,-5.811 -5.811,-5.811" style="fill:rgb(254,211,98);fill-rule:nonzero;"/>
            </g>
            <g transform="matrix(0,-1,-1,0,356.4418,99.1332)">
                <path d="M-5.128,-5.128C-7.961,-5.128 -10.258,-2.833 -10.258,-0.001C-10.258,2.833 -7.961,5.128 -5.128,5.128C-2.296,5.128 0,2.833 0,-0.001C0,-2.833 -2.296,-5.128 -5.128,-5.128" style="fill:rgb(254,211,98);fill-rule:nonzero;"/>
            </g>
            <g transform="matrix(1,0,0,1,282.1016,153.2144)">
                <path d="M0,-19.229C-5.303,-19.229 -9.615,-14.916 -9.615,-9.615C-9.615,-4.313 -5.303,0 0,0C5.302,0 9.614,-4.313 9.614,-9.615C9.614,-14.916 5.302,-19.229 0,-19.229M0,1C-5.854,1 -10.615,-3.762 -10.615,-9.615C-10.615,-15.467 -5.854,-20.229 0,-20.229C5.852,-20.229 10.614,-15.467 10.614,-9.615C10.614,-3.762 5.852,1 0,1" style="fill:rgb(255,212,62);fill-rule:nonzero;"/>
            </g>
            <g transform="matrix(1,0,0,1,327.2178,137.6462)">
                <path d="M0,-6.448C9.561,-21.717 3.714,-33.359 3.056,-34.57L3.075,-34.586C3.075,-34.586 3.056,-34.602 3.025,-34.625C3.007,-34.658 2.994,-34.68 2.994,-34.68L2.975,-34.663C1.878,-35.497 -8.745,-43.038 -25.285,-35.9C-41.303,-28.986 -54.608,-34.405 -67.868,-29.921C-69.689,-29.305 -70.294,-27.021 -69.042,-25.563L-42.982,4.792L-42.901,4.886L-17.021,35.031C-15.683,36.59 -13.159,36.328 -12.23,34.495C-5.96,22.128 -9.198,8.242 0,-6.448" style="fill:rgb(254,211,98);fill-rule:nonzero;"/>
            </g>
            <g transform="matrix(1,0,0,1,325.1016,164.9373)">
                <path d="M0,-46.137C-1.762,-43.003 -3.167,-39.678 -5.206,-36.705C-8.999,-31.177 -14.3,-27.804 -21.008,-27.037C-29.779,-26.033 -37.252,-31.058 -44.521,-35.215C-49.375,-37.991 -54.148,-40.901 -59.016,-43.639L-40.866,-22.499L-40.785,-22.405L-14.905,7.74C-13.566,9.299 -11.043,9.037 -10.114,7.204C-3.844,-5.163 -7.082,-19.049 2.116,-33.739C7.705,-42.666 8.026,-50.348 7.199,-55.436C5.281,-51.959 1.964,-49.632 0,-46.137" style="fill:rgb(244,190,71);fill-rule:nonzero;"/>
            </g>
            <g transform="matrix(1,0,0,1,410.4434,322.1096)">
                <path d="M0,4.283L-24.137,4.283C-25.207,4.283 -26.074,3.415 -26.074,2.346L-26.074,1.937C-26.074,0.867 -25.207,0 -24.137,0L0,0C1.071,0 1.938,0.867 1.938,1.937L1.938,2.346C1.938,3.415 1.071,4.283 0,4.283" style="fill:rgb(254,211,98);fill-rule:nonzero;"/>
            </g>
            <g transform="matrix(1,0,0,1,240.8467,190.5785)">
                <path d="M0,137.318L-20.146,140.457C-22.021,140.75 -23.78,139.465 -24.072,137.589L-44.897,3.926C-45.189,2.05 -43.905,0.292 -42.029,-0L-21.883,-3.139C-20.007,-3.432 -18.25,-2.147 -17.957,-0.271L2.868,133.392C3.16,135.268 1.876,137.026 0,137.318" style="fill:rgb(74,65,147);fill-rule:nonzero;"/>
            </g>
            <g transform="matrix(-0.98808,0.153939,0.153939,0.98808,214.75395,314.791366)">
                <rect x="-27.202" y="-2.106" width="27.265" height="1.291" style="fill:white;"/>
            </g>
            <g transform="matrix(-0.988081,0.153934,0.153934,0.988081,212.771953,302.067597)">
                <rect x="-27.202" y="-2.106" width="27.265" height="1.291" style="fill:white;"/>
            </g>
            <g transform="matrix(-0.98808,0.153939,0.153939,0.98808,200.700173,224.587672)">
                <rect x="-27.202" y="-2.106" width="27.265" height="1.292" style="fill:white;"/>
            </g>
            <g transform="matrix(-0.988081,0.153934,0.153934,0.988081,198.718253,211.864497)">
                <rect x="-27.202" y="-2.106" width="27.265" height="1.291" style="fill:white;"/>
            </g>
            <g transform="matrix(1,0,0,1,156.7734,184.2406)">
                <path d="M0,142.152L-30.673,142.152C-32.572,142.152 -34.111,140.613 -34.111,138.714L-34.111,3.438C-34.111,1.539 -32.572,0 -30.673,0L0,0C1.899,0 3.438,1.539 3.438,3.438L3.438,138.714C3.438,140.613 1.899,142.152 0,142.152" style="fill:rgb(118,108,255);fill-rule:nonzero;"/>
            </g>
            <g transform="matrix(-1,0,0,1,282.874,115.93)">
                <rect x="122.662" y="191.389" width="37.55" height="1.292" style="fill:white;"/>
            </g>
            <g transform="matrix(-1,0,0,1,282.874,90.177)">
                <rect x="122.662" y="204.266" width="37.55" height="1.291" style="fill:white;"/>
            </g>
            <g transform="matrix(-1,0,0,1,282.874,-66.651)">
                <rect x="122.662" y="282.68" width="37.55" height="1.291" style="fill:white;"/>
            </g>
            <g transform="matrix(-1,0,0,1,282.874,-92.406)">
                <rect x="122.662" y="295.557" width="37.55" height="1.292" style="fill:white;"/>
            </g>
            <g transform="matrix(0,-1,-1,0,142.3304,245.7308)">
                <ellipse cx="-12.715" cy="-0.001" rx="12.715" ry="12.715" style="fill:none;stroke:white;stroke-width:1px;"/>
            </g>
            <g opacity="0.67">
                <g transform="matrix(1,0,0,1,160.2119,326.3927)">
                    <path d="M0,-138.714L-11.324,-0.876L-11.324,0L-2.56,0L-0.723,-1.335L-0.066,-2.764L0,-138.714Z" style="fill:rgb(73,73,234);fill-rule:nonzero;"/>
                </g>
            </g>
            <g transform="matrix(1,0,0,1,272.6006,184.2406)">
                <path d="M0,142.152L-25.507,142.152C-27.406,142.152 -28.945,140.613 -28.945,138.714L-28.945,3.438C-28.945,1.539 -27.406,0 -25.507,0L0,0C1.899,0 3.438,1.539 3.438,3.438L3.438,138.714C3.438,140.613 1.899,142.152 0,142.152" style="fill:rgb(118,108,255);fill-rule:nonzero;"/>
            </g>
            <g transform="matrix(-1,0,0,1,519.694,115.93)">
                <rect x="243.655" y="191.389" width="32.384" height="1.292" style="fill:white;"/>
            </g>
            <g transform="matrix(-1,0,0,1,519.694,90.177)">
                <rect x="243.655" y="204.266" width="32.384" height="1.291" style="fill:white;"/>
            </g>
            <g transform="matrix(-1,0,0,1,519.694,-66.651)">
                <rect x="243.655" y="282.68" width="32.384" height="1.291" style="fill:white;"/>
            </g>
            <g transform="matrix(-1,0,0,1,519.694,-92.406)">
                <rect x="243.655" y="295.557" width="32.384" height="1.292" style="fill:white;"/>
            </g>
            <g transform="matrix(0,-1,-1,0,260.618,249.2293)">
                <circle cx="-10.966" cy="0" r="10.966" style="fill:none;stroke:white;stroke-width:1px;"/>
            </g>
            <g opacity="0.67">
                <g transform="matrix(1,0,0,1,276.0391,326.3927)">
                    <path d="M0,-138.714L-11.324,-0.876L-11.324,0L-2.56,0L-0.723,-1.335L-0.065,-2.764L0,-138.714Z" style="fill:rgb(73,73,234);fill-rule:nonzero;"/>
                </g>
            </g>
            <g transform="matrix(1,0,0,1,194.3232,168.4456)">
                <path d="M0,157.947L-30.673,157.947C-32.572,157.947 -34.111,156.408 -34.111,154.509L-34.111,3.439C-34.111,1.54 -32.572,0 -30.673,0L0,0C1.898,0 3.438,1.54 3.438,3.439L3.438,154.509C3.438,156.408 1.898,157.947 0,157.947" style="fill:rgb(247,78,0);fill-rule:nonzero;"/>
            </g>
            <g transform="matrix(-1,0,0,1,357.973,111.836)">
                <rect x="160.212" y="193.364" width="37.549" height="1.436" style="fill:white;"/>
            </g>
            <g transform="matrix(-1,0,0,1,357.973,83.221)">
                <rect x="160.212" y="207.672" width="37.549" height="1.435" style="fill:white;"/>
            </g>
            <g transform="matrix(-1,0,0,1,357.973,-91.033)">
                <rect x="160.212" y="294.799" width="37.549" height="1.435" style="fill:white;"/>
            </g>
            <g transform="matrix(-1,0,0,1,357.973,-119.647)">
                <rect x="160.212" y="309.106" width="37.549" height="1.435" style="fill:white;"/>
            </g>
            <g transform="matrix(0,-1,-1,0,179.8807,238.181)">
                <ellipse cx="-12.715" cy="0" rx="14.128" ry="12.715" style="fill:none;stroke:white;stroke-width:1px;"/>
            </g>
            <g opacity="0.7">
                <g transform="matrix(1,0,0,1,198.2578,326.3925)">
                    <path d="M0,-154.37L-18.565,-0.974L-18.565,0L-4.197,0L-1.185,-1.485L-0.107,-3.075L0,-154.37Z" style="fill:rgb(224,63,0);fill-rule:nonzero;"/>
                </g>
            </g>
            <g opacity="0.58">
                <g transform="matrix(0.091769,0.99578,0.99578,-0.091769,293.531036,254.234039)">
                    <path d="M-51.463,-63.305L68.773,-63.305L67.233,-56.758L64.87,-56.006L-51.463,-63.305Z" style="fill:rgb(49,45,127);fill-rule:nonzero;"/>
                </g>
            </g>
            <g transform="matrix(1,0,0,1,319.5537,174.1711)">
                <path d="M0,153.45L-19.143,156.265C-21.021,156.542 -22.769,155.243 -23.045,153.364L-45.029,3.902C-45.306,2.024 -44.007,0.277 -42.128,0L-22.985,-2.816C-21.106,-3.092 -19.36,-1.793 -19.084,0.086L2.901,149.548C3.178,151.427 1.879,153.174 0,153.45" style="fill:rgb(247,78,0);fill-rule:nonzero;"/>
            </g>
            <g transform="matrix(-0.989357,0.145509,0.145509,0.989357,294.238678,311.860343)">
                <rect x="-26.19" y="-1.916" width="26.225" height="1.434" style="fill:white;"/>
            </g>
            <g transform="matrix(-0.989357,0.145509,0.145509,0.989357,292.156506,297.705048)">
                <rect x="-26.19" y="-1.916" width="26.225" height="1.435" style="fill:white;"/>
            </g>
            <g transform="matrix(-0.989357,0.145509,0.145509,0.989357,277.395873,197.35107)">
                <rect x="-26.189" y="-1.916" width="26.224" height="1.434" style="fill:white;"/>
            </g>
            <g opacity="0.7">
                <g transform="matrix(1,0,0,1,302.5254,328.1684)">
                    <path d="M0,-139.937L7.891,-1.776L20.937,0L0,-139.937Z" style="fill:rgb(224,63,0);fill-rule:nonzero;"/>
                </g>
            </g>
            <g transform="matrix(1,0,0,1,347.5352,190.5785)">
                <path d="M0,137.318L-20.146,140.457C-22.021,140.75 -23.779,139.465 -24.072,137.589L-44.896,3.926C-45.189,2.05 -43.905,0.292 -42.029,-0L-21.884,-3.139C-20.007,-3.432 -18.249,-2.147 -17.957,-0.271L2.868,133.392C3.16,135.268 1.876,137.026 0,137.318" style="fill:rgb(74,65,147);fill-rule:nonzero;"/>
            </g>
            <g transform="matrix(-0.988081,0.153934,0.153934,0.988081,321.44293,314.791291)">
                <rect x="-27.202" y="-2.106" width="27.265" height="1.29" style="fill:white;"/>
            </g>
            <g transform="matrix(-0.988081,0.153934,0.153934,0.988081,319.460453,302.067597)">
                <rect x="-27.202" y="-2.106" width="27.265" height="1.291" style="fill:white;"/>
            </g>
            <g transform="matrix(-0.988081,0.153934,0.153934,0.988081,307.389153,224.587597)">
                <rect x="-27.202" y="-2.106" width="27.265" height="1.291" style="fill:white;"/>
            </g>
            <g transform="matrix(-0.988081,0.153934,0.153934,0.988081,305.406753,211.864497)">
                <rect x="-27.202" y="-2.106" width="27.265" height="1.291" style="fill:white;"/>
            </g>
            <g opacity="0.58">
                <g transform="matrix(1,0,0,1,332.6436,328.1684)">
                    <path d="M0,-114.121L8.783,0L18.685,0L0,-114.121Z" style="fill:rgb(49,45,127);fill-rule:nonzero;"/>
                </g>
            </g>
            <g transform="matrix(1,0,0,1,375.4004,216.9745)">
                <path d="M0,110.922L-20.146,114.061C-22.021,114.354 -23.78,113.069 -24.072,111.193L-40.784,3.925C-41.077,2.049 -39.793,0.291 -37.917,-0.001L-17.771,-3.14C-15.895,-3.432 -14.137,-2.148 -13.845,-0.272L2.868,106.996C3.16,108.872 1.876,110.63 0,110.922" style="fill:rgb(118,108,255);fill-rule:nonzero;"/>
            </g>
            <g transform="matrix(-0.98808,0.153939,0.153939,0.98808,349.878019,318.327716)">
                <rect x="-27.183" y="-2.105" width="27.265" height="1.049" style="fill:white;"/>
            </g>
            <g transform="matrix(-0.988081,0.153934,0.153934,0.988081,348.267605,307.995719)">
                <rect x="-27.184" y="-2.105" width="27.266" height="1.049" style="fill:white;"/>
            </g>
            <g transform="matrix(-0.988081,0.153934,0.153934,0.988081,338.464905,245.076219)">
                <rect x="-27.184" y="-2.105" width="27.266" height="1.049" style="fill:white;"/>
            </g>
            <g transform="matrix(-0.98808,0.153939,0.153939,0.98808,336.855542,234.743222)">
                <rect x="-27.183" y="-2.104" width="27.265" height="1.049" style="fill:white;"/>
            </g>
            <g opacity="0.67">
                <g transform="matrix(1,0,0,1,334.6162,328.1679)">
                    <path d="M0,-107.268L29.732,0L16.712,0" style="fill:rgb(73,73,234);fill-rule:nonzero;"/>
                </g>
            </g>
            <g transform="matrix(1,0,0,1,416.2539,326.3924)">
                <path d="M0,17.259L-333.204,17.259C-337.97,17.259 -341.833,13.396 -341.833,8.629C-341.833,3.863 -337.97,0 -333.204,0L0,0C4.767,0 8.63,3.863 8.63,8.629C8.63,13.396 4.767,17.259 0,17.259" style="fill:rgb(6,0,90);fill-rule:nonzero;"/>
            </g>
            <g transform="matrix(1,0,0,1,297.4346,244.6597)">
                <path d="M0,117.311C0,117.311 -39.347,94.598 -88.392,107.111C-88.392,107.111 -98.21,109.686 -99.515,98.842C-99.515,98.842 -124.109,50.939 -152.378,33.286L-143.547,26.707L-52.279,0C-52.279,0 -15.223,21.487 -5.041,49.212C-5.041,49.212 57.121,51.098 83.008,63.919L94.277,67.111L0,117.311Z" style="fill:rgb(74,65,147);fill-rule:nonzero;"/>
            </g>
            <g transform="matrix(1,0,0,1,147.6104,346.0303)">
                <path d="M0,-76.499L9.938,-84.203C9.938,-84.203 51.298,-58.266 64.832,-16.552C64.832,-16.552 114.173,-30.388 149.729,-11.012L235.263,-52.771L235.711,-36.72L150.007,7.704C150.007,7.704 116.381,-9.524 67.036,-3.697C67.036,-3.697 58.623,1.57 55.511,-8.058C55.511,-8.058 34.284,-53.994 0,-76.499" style="fill:rgb(225,218,234);fill-rule:nonzero;"/>
            </g>
            <g transform="matrix(1,0,0,1,157.5483,313.9191)">
                <path d="M0,-52.092L94.029,-73.191C94.029,-73.191 129.219,-37.344 134.845,-20.047C134.845,-20.047 181.327,-27.435 225.325,-20.66L139.791,21.099C139.791,21.099 113.103,7.252 54.894,15.559C54.894,15.559 25.872,-35.605 0,-52.092" style="fill:rgb(239,232,247);fill-rule:nonzero;"/>
            </g>
            <g transform="matrix(1,0,0,1,178.6807,329.5179)">
                <path d="M0,-72.598L-7.275,-70.936C-7.275,-70.936 26.427,-30.112 33.744,0L54.459,-19.352" style="fill:rgb(225,218,234);fill-rule:nonzero;"/>
            </g>
            <g transform="matrix(0.878632,0.477499,0.477499,-0.878632,191.865744,313.368398)">
                <path d="M25.515,-2.712C25.515,-2.712 -8.088,40.319 -49.694,45.164L25.515,108.45C25.515,108.45 55.026,98.923 79.017,65.133L25.515,-2.712Z" style="fill:rgb(239,232,247);fill-rule:nonzero;"/>
            </g>
            <g transform="matrix(0.996575,0.082693,0.082693,-0.996575,368.469402,297.505129)">
                <path d="M-1.836,5.845L5.674,5.845L-65.999,-38.096C-65.999,-38.096 -103.689,-33.609 -126.171,-38.848C-148.655,-44.087 -126.171,-38.848 -126.171,-38.848" style="fill:rgb(225,218,234);fill-rule:nonzero;"/>
            </g>
            <g transform="matrix(0.913505,-0.406827,-0.406827,-0.913505,229.389547,361.200082)">
                <path d="M-2.576,35.872L84.945,35.872C84.945,35.872 141.104,24.417 165.931,5.843L75.868,2.023C75.868,2.023 49,23.558 -2.576,35.872" style="fill:rgb(239,232,247);fill-rule:nonzero;"/>
            </g>
            <g transform="matrix(0.918413,-0.395623,-0.395623,-0.918413,223.16703,344.819189)">
                <path d="M-3.781,18.332L88.894,18.332L83.734,19.403L-2.668,19.534L-3.781,18.332Z" style="fill:rgb(225,218,234);fill-rule:nonzero;"/>
            </g>
            <g transform="matrix(1,0,0,1,292.166,291.6561)">
                <path d="M0,4.838C4.377,5.016 8.715,4.338 13.028,3.692C15.233,3.362 17.441,3.041 19.664,2.854C21.899,2.664 24.145,2.637 26.387,2.587C30.885,2.487 35.346,2.033 39.82,1.59C44.305,1.146 48.794,0.85 53.302,0.825C58.405,0.797 63.508,1.072 68.58,1.643C69.068,1.697 69.064,0.932 68.58,0.877C59.553,-0.137 50.459,-0.178 41.417,0.67C36.941,1.09 32.476,1.635 27.979,1.779C25.763,1.852 23.544,1.853 21.329,1.973C19.15,2.091 16.984,2.354 14.824,2.661C9.908,3.359 4.988,4.276 0,4.072C-0.492,4.052 -0.491,4.817 0,4.838" style="fill:rgb(225,218,234);fill-rule:nonzero;"/>
            </g>
            <g transform="matrix(1,0,0,1,285.4717,298.1363)">
                <path d="M0,1.85C3.88,1.898 7.755,1.704 11.629,1.527C15.448,1.352 19.264,1.277 23.087,1.248C30.771,1.193 38.448,0.792 46.135,0.783C50.473,0.777 54.811,0.85 59.146,0.999C59.64,1.017 59.639,0.251 59.146,0.235C51.448,-0.032 43.743,-0.048 36.042,0.17C32.19,0.28 28.339,0.427 24.484,0.471C20.669,0.514 16.858,0.533 13.045,0.698C8.699,0.886 4.353,1.138 0,1.084C-0.492,1.079 -0.493,1.844 0,1.85" style="fill:rgb(225,218,234);fill-rule:nonzero;"/>
            </g>
            <g transform="matrix(1,0,0,1,278.5908,304.6358)">
                <path d="M0,-0.17C3.687,0.017 7.378,-0.08 11.065,-0.16C14.749,-0.24 18.42,-0.202 22.103,-0.106C29.45,0.087 36.8,-0.131 44.147,0.116C48.3,0.257 52.449,0.49 56.591,0.815C57.082,0.854 57.079,0.089 56.591,0.051C49.247,-0.526 41.884,-0.807 34.518,-0.807C30.85,-0.807 27.181,-0.761 23.512,-0.837C19.833,-0.914 16.164,-1.024 12.483,-0.955C8.322,-0.877 4.16,-0.725 0,-0.935C-0.492,-0.96 -0.491,-0.194 0,-0.17" style="fill:rgb(225,218,234);fill-rule:nonzero;"/>
            </g>
            <g transform="matrix(1,0,0,1,266.8721,310.5098)">
                <path d="M0,-0.17C3.688,0.017 7.378,-0.08 11.066,-0.16C14.749,-0.241 18.421,-0.202 22.103,-0.107C29.45,0.087 36.8,-0.131 44.147,0.116C48.3,0.256 52.449,0.49 56.591,0.815C57.082,0.854 57.08,0.089 56.591,0.05C49.247,-0.526 41.884,-0.807 34.519,-0.807C30.85,-0.807 27.181,-0.761 23.513,-0.838C19.834,-0.914 16.164,-1.024 12.484,-0.955C8.323,-0.877 4.16,-0.725 0,-0.936C-0.492,-0.96 -0.49,-0.195 0,-0.17" style="fill:rgb(225,218,234);fill-rule:nonzero;"/>
            </g>
            <g transform="matrix(1,0,0,1,251.0967,317.2149)">
                <path d="M0,-0.169C3.687,0.018 7.377,-0.08 11.065,-0.16C14.748,-0.24 18.42,-0.202 22.103,-0.106C29.45,0.087 36.8,-0.131 44.147,0.117C48.3,0.257 52.448,0.491 56.591,0.816C57.081,0.854 57.079,0.089 56.591,0.051C49.247,-0.526 41.884,-0.806 34.518,-0.806C30.849,-0.807 27.18,-0.76 23.512,-0.837C19.833,-0.914 16.163,-1.023 12.483,-0.954C8.322,-0.876 4.159,-0.724 0,-0.935C-0.493,-0.96 -0.491,-0.194 0,-0.169" style="fill:rgb(225,218,234);fill-rule:nonzero;"/>
            </g>
            <g transform="matrix(1,0,0,1,238.5771,322.1963)">
                <path d="M0,-0.169C3.687,0.018 7.377,-0.079 11.065,-0.16C14.749,-0.24 18.42,-0.201 22.103,-0.106C29.45,0.088 36.8,-0.131 44.147,0.117C48.3,0.257 52.449,0.491 56.591,0.816C57.082,0.854 57.079,0.089 56.591,0.051C49.247,-0.525 41.884,-0.806 34.518,-0.806C30.85,-0.806 27.18,-0.76 23.512,-0.837C19.833,-0.914 16.163,-1.023 12.483,-0.954C8.323,-0.876 4.16,-0.724 0,-0.935C-0.492,-0.959 -0.491,-0.194 0,-0.169" style="fill:rgb(225,218,234);fill-rule:nonzero;"/>
            </g>
            <g transform="matrix(1,0,0,1,286.2861,237.4828)">
                <path d="M0,52.276C-2.048,49.158 -3.343,45.632 -4.654,42.141C-5.324,40.356 -6.004,38.575 -6.805,36.849C-7.609,35.113 -8.558,33.454 -9.485,31.784C-11.348,28.435 -12.888,24.933 -14.442,21.426C-16.001,17.913 -17.69,14.47 -19.62,11.153C-21.806,7.396 -24.252,3.795 -26.938,0.366C-27.197,0.035 -26.536,-0.351 -26.279,-0.023C-21.498,6.08 -17.526,12.727 -14.342,19.788C-12.766,23.283 -11.302,26.836 -9.479,30.206C-8.582,31.868 -7.623,33.495 -6.768,35.18C-5.926,36.838 -5.214,38.56 -4.544,40.299C-3.017,44.26 -1.676,48.333 0.658,51.887C0.889,52.238 0.229,52.627 0,52.276" style="fill:rgb(225,218,234);fill-rule:nonzero;"/>
            </g>
            <g transform="matrix(1,0,0,1,280.0166,240.3011)">
                <path d="M0,52.276C-2.048,49.158 -3.342,45.632 -4.653,42.141C-5.324,40.356 -6.004,38.575 -6.804,36.849C-7.608,35.113 -8.557,33.454 -9.485,31.784C-11.347,28.435 -12.887,24.933 -14.442,21.426C-16.001,17.913 -17.69,14.47 -19.62,11.153C-21.805,7.396 -24.252,3.795 -26.937,0.365C-27.196,0.035 -26.535,-0.351 -26.279,-0.023C-21.498,6.08 -17.525,12.727 -14.342,19.788C-12.766,23.283 -11.301,26.836 -9.479,30.206C-8.581,31.868 -7.622,33.495 -6.767,35.18C-5.926,36.838 -5.214,38.56 -4.543,40.299C-3.017,44.259 -1.675,48.333 0.659,51.887C0.89,52.238 0.23,52.627 0,52.276" style="fill:rgb(225,218,234);fill-rule:nonzero;"/>
            </g>
            <g transform="matrix(1,0,0,1,272.2666,243.0345)">
                <path d="M0,52.278C-2.048,49.159 -3.342,45.633 -4.654,42.142C-5.324,40.358 -6.004,38.576 -6.804,36.85C-7.609,35.115 -8.557,33.455 -9.485,31.786C-11.348,28.436 -12.888,24.934 -14.442,21.428C-16.001,17.915 -17.69,14.472 -19.62,11.155C-21.805,7.398 -24.252,3.797 -26.938,0.367C-27.197,0.037 -26.536,-0.35 -26.279,-0.022C-21.498,6.081 -17.526,12.729 -14.342,19.79C-12.766,23.285 -11.302,26.837 -9.479,30.208C-8.582,31.869 -7.622,33.497 -6.768,35.181C-5.926,36.84 -5.214,38.561 -4.543,40.301C-3.017,44.261 -1.675,48.335 0.659,51.888C0.89,52.24 0.229,52.628 0,52.278" style="fill:rgb(225,218,234);fill-rule:nonzero;"/>
            </g>
            <g transform="matrix(1,0,0,1,264.7588,246.3021)">
                <path d="M0,52.276C-2.048,49.158 -3.342,45.632 -4.653,42.141C-5.324,40.356 -6.004,38.575 -6.804,36.849C-7.609,35.113 -8.557,33.454 -9.485,31.784C-11.347,28.435 -12.887,24.933 -14.442,21.426C-16,17.913 -17.69,14.47 -19.62,11.153C-21.805,7.396 -24.252,3.795 -26.938,0.366C-27.197,0.035 -26.536,-0.351 -26.279,-0.023C-21.498,6.08 -17.526,12.727 -14.341,19.788C-12.766,23.283 -11.302,26.836 -9.479,30.206C-8.581,31.868 -7.622,33.495 -6.767,35.18C-5.926,36.838 -5.214,38.56 -4.543,40.299C-3.017,44.26 -1.675,48.333 0.659,51.887C0.89,52.238 0.23,52.627 0,52.276" style="fill:rgb(225,218,234);fill-rule:nonzero;"/>
            </g>
            <g transform="matrix(1,0,0,1,255.4951,248.4008)">
                <path d="M0,52.276C-2.048,49.158 -3.342,45.632 -4.654,42.141C-5.325,40.356 -6.004,38.575 -6.804,36.849C-7.609,35.113 -8.557,33.454 -9.485,31.784C-11.347,28.435 -12.887,24.933 -14.442,21.426C-16,17.913 -17.69,14.47 -19.62,11.153C-21.805,7.396 -24.252,3.795 -26.938,0.366C-27.197,0.035 -26.536,-0.351 -26.279,-0.023C-21.499,6.08 -17.526,12.727 -14.342,19.788C-12.766,23.283 -11.302,26.836 -9.479,30.206C-8.582,31.868 -7.623,33.495 -6.767,35.18C-5.926,36.838 -5.214,38.56 -4.543,40.299C-3.017,44.26 -1.675,48.333 0.659,51.887C0.89,52.238 0.229,52.627 0,52.276" style="fill:rgb(225,218,234);fill-rule:nonzero;"/>
            </g>
            <g transform="matrix(1,0,0,1,245.6816,251.0433)">
                <path d="M0,52.277C-2.048,49.159 -3.342,45.633 -4.654,42.141C-5.324,40.357 -6.004,38.575 -6.804,36.85C-7.609,35.114 -8.557,33.455 -9.485,31.785C-11.347,28.435 -12.887,24.934 -14.442,21.427C-16,17.914 -17.69,14.471 -19.62,11.154C-21.805,7.397 -24.252,3.796 -26.938,0.366C-27.197,0.036 -26.536,-0.35 -26.279,-0.023C-21.498,6.081 -17.526,12.728 -14.342,19.789C-12.765,23.284 -11.301,26.837 -9.479,30.207C-8.582,31.868 -7.623,33.496 -6.767,35.18C-5.925,36.839 -5.214,38.56 -4.543,40.3C-3.017,44.26 -1.675,48.334 0.659,51.887C0.889,52.239 0.23,52.627 0,52.277" style="fill:rgb(225,218,234);fill-rule:nonzero;"/>
            </g>
            <g transform="matrix(1,0,0,1,237.6987,252.9379)">
                <path d="M0,56.648C-2.212,53.251 -3.67,49.449 -5.144,45.682C-5.898,43.757 -6.661,41.835 -7.544,39.967C-8.433,38.088 -9.466,36.287 -10.479,34.474C-12.51,30.838 -14.218,27.051 -15.941,23.26C-17.668,19.46 -19.527,15.732 -21.626,12.127C-24.003,8.044 -26.642,4.119 -29.52,0.366C-29.796,0.004 -29.135,-0.382 -28.86,-0.024C-23.74,6.656 -19.425,13.882 -15.9,21.519C-14.156,25.3 -12.524,29.137 -10.533,32.794C-9.551,34.597 -8.509,36.366 -7.57,38.192C-6.646,39.989 -5.853,41.849 -5.102,43.726C-3.39,48.001 -1.863,52.386 0.659,56.259C0.908,56.641 0.249,57.03 0,56.648" style="fill:rgb(225,218,234);fill-rule:nonzero;"/>
            </g>
            <g transform="matrix(1,0,0,1,225.0532,254.7063)">
                <path d="M0,58.571C-2.285,55.05 -3.814,51.127 -5.36,47.24C-6.15,45.253 -6.949,43.268 -7.87,41.339C-8.796,39.397 -9.866,37.532 -10.915,35.657C-13.021,31.894 -14.803,27.983 -16.6,24.066C-18.402,20.14 -20.334,16.287 -22.508,12.555C-24.97,8.33 -27.693,4.26 -30.655,0.365C-30.94,-0.01 -30.279,-0.396 -29.996,-0.024C-24.726,6.908 -20.26,14.39 -16.586,22.281C-14.767,26.186 -13.062,30.149 -10.996,33.932C-9.978,35.798 -8.898,37.629 -7.923,39.517C-6.963,41.375 -6.134,43.296 -5.347,45.233C-3.554,49.645 -1.945,54.17 0.659,58.181C0.916,58.578 0.256,58.967 0,58.571" style="fill:rgb(225,218,234);fill-rule:nonzero;"/>
            </g>
            <g transform="matrix(0.121631,-0.992575,-0.992575,-0.121631,269.335878,298.715319)">
                <path d="M-42.692,-32.01C-31.648,2.85 -43.535,47.156 -43.657,47.599L-42.692,47.863C-42.571,47.418 -30.607,2.824 -41.738,-32.313L-42.692,-32.01Z" style="fill:rgb(206,198,219);fill-rule:nonzero;"/>
            </g>
            <g transform="matrix(1,0,0,1,292.9551,354.0108)">
                <path d="M0,-60.584C0,-60.584 -24.958,-49.673 -52.462,-37.874C-79.966,-26.076 -84.433,-16 -95.194,1.259L-88.437,-1.258L-86,2.338C-86,2.338 -77.133,-15.771 -67.185,-21.818C-57.236,-27.864 14.048,-62.922 14.048,-62.922L0,-60.584Z" style="fill:rgb(244,190,71);fill-rule:nonzero;"/>
            </g>
        </g>
    </g>
</svg>
